<svg xmlns="http://www.w3.org/2000/svg" width="77.121" height="77.121" viewBox="0 0 77.121 77.121"><defs><style>.a{fill:#373435;}.b{fill:#6aad74;}.b,.c{fill-rule:evenodd;}.c{fill:#a78780;}.d{fill:none;}</style></defs><path class="a" d="M2.4,29.514a17.67,17.67,0,0,1,7.942,4.671c3.574,3.443,7.4,9.359,9.341,19.463a2.711,2.711,0,0,0,3.8.328,6.365,6.365,0,0,0,2.463-5.006c.162-2.809-.726-6.985-3.663-13.417l-.413-.9.992.055a68.986,68.986,0,0,0,11.6-.436,20.67,20.67,0,0,0,4.651-1.119,12.4,12.4,0,0,0,3.911-2.416,1.758,1.758,0,0,0-.306-.377c-.161-.177-.385-.391-.618-.614-.877-.836-1.878-1.79-1.76-2.988.081-.828,1.185-1.431,2.289-2.034.828-.453,1.657-.905,1.67-1.094.03-.452-.915-1.123-1.852-1.79-1.16-.825-2.313-1.645-2.316-2.69,0-1.129,1.16-2.062,2.3-2.978.906-.727,1.795-1.44,1.739-1.892-.044-.359-.909-.9-1.773-1.449-1.026-.647-2.052-1.294-2.283-2.116-.266-.947.436-1.715,1.119-2.463.45-.492.887-.971.769-1.172a10.364,10.364,0,0,0-1.319-1.8,8.888,8.888,0,0,0-1.664-1.414c-2.786-1.828-3.675-1.785-7.988-1.575-.771.037-1.649.08-2.71.12-.808.031-1.589.051-2.332.07-5.327.138-8.612.223-15.92,4.358C7.856,8.1,5.292,7.944,2.8,7.8l-.569-.033.066-1.2.574.033c2.316.137,4.7.278,6.609-.8,7.569-4.283,10.97-4.371,16.485-4.514.721-.019,1.48-.038,2.318-.07,1-.038,1.9-.082,2.7-.12,4.638-.226,5.594-.272,8.7,1.768a10.1,10.1,0,0,1,1.89,1.607,11.558,11.558,0,0,1,1.47,2c.564.964-.167,1.765-.92,2.589-.46.5-.933,1.021-.846,1.329.106.378.936.9,1.765,1.424,1.107.7,2.214,1.4,2.328,2.319.137,1.114-1.011,2.035-2.182,2.974-.92.738-1.857,1.489-1.855,2.041,0,.423.9,1.065,1.813,1.711,1.21.861,2.429,1.727,2.356,2.844-.056.849-1.176,1.461-2.3,2.073-.824.45-1.649.9-1.668,1.1-.06.614.714,1.352,1.393,2,.24.228.469.447.68.68.663.731.955,1.406.221,2.071a13.583,13.583,0,0,1-4.283,2.646,21.8,21.8,0,0,1-4.919,1.19,68.624,68.624,0,0,1-10.857.485c2.712,6.141,3.537,10.249,3.372,13.093a7.488,7.488,0,0,1-2.914,5.877c-3.031,2.424-5.557-.584-5.565-.592l-.134-.28c-1.87-9.91-5.575-15.665-9.026-18.989a16.425,16.425,0,0,0-7.373-4.365L2.4,29.514Z" transform="translate(21.972 10.138)"/><path class="a" d="M1.456,1.14h14.6V33.217H.853V1.14h.6Zm13.393,1.2H2.058V32.012H14.849Z" transform="translate(8.787 11.736)"/><path class="b" d="M.96,1.246V30.922H13.748V1.246Z" transform="translate(9.885 12.829)"/><path class="c" d="M2.2,6.7V28.536a18.318,18.318,0,0,1,7.472,4.55c3.574,3.443,7.4,9.359,9.341,19.463a2.711,2.711,0,0,0,3.8.328,6.365,6.365,0,0,0,2.463-5.006c.162-2.809-.726-6.985-3.663-13.417l-.413-.9.992.055a68.986,68.986,0,0,0,11.6-.436,20.669,20.669,0,0,0,4.651-1.119,12.4,12.4,0,0,0,3.911-2.416,1.758,1.758,0,0,0-.306-.377c-.161-.177-.385-.391-.618-.614-.877-.836-1.878-1.79-1.76-2.988.081-.828,1.185-1.431,2.289-2.034.828-.453,1.657-.905,1.67-1.094.03-.452-.915-1.123-1.852-1.79-1.16-.825-2.313-1.645-2.316-2.69,0-1.129,1.16-2.062,2.3-2.978.906-.727,1.795-1.44,1.739-1.892-.044-.359-.909-.9-1.773-1.449-1.026-.647-2.052-1.294-2.283-2.116-.266-.947.436-1.715,1.119-2.463.45-.492.887-.971.769-1.172a10.364,10.364,0,0,0-1.319-1.8,8.888,8.888,0,0,0-1.664-1.414C35.569.938,34.68.982,30.367,1.191c-.771.037-1.649.08-2.71.12-.808.031-1.589.051-2.332.07C20,1.52,16.714,1.6,9.406,5.74,7.206,6.985,4.668,6.847,2.2,6.7Z" transform="translate(22.642 11.238)"/><rect class="d" width="77.121" height="77.121"/></svg>