<svg xmlns="http://www.w3.org/2000/svg" width="65.488" height="49.661" viewBox="0 0 65.488 49.661"><defs><style>.a{fill:#fbfbfb;}.b{fill:#f3f3f5;}.c{fill:#e8e8ec;}.d{fill:#dfdfe5;}.e,.f,.m{fill:none;stroke-linecap:round;stroke-linejoin:round;}.e,.m{stroke:#12141a;}.f{stroke:#e6e6e6;}.g,.j{fill:#fc0;}.g,.h,.i{fill-rule:evenodd;}.h{fill:#12141a;}.i,.l{fill:#ff8e00;}.k{fill:#fff;}</style></defs><g transform="translate(-1702.913 -1106.62)"><g transform="translate(1703.412 1106.62)"><path class="a" d="M848.333-65.286a32.494,32.494,0,0,1,32.494-32.494,32.494,32.494,0,0,1,32.494,32.494H848.333Z" transform="translate(-848.333 107.918)"/><path class="b" d="M855.333-66.4a24.378,24.378,0,0,1,24.378-24.378A24.378,24.378,0,0,1,904.09-66.4H855.333Z" transform="translate(-847.217 109.034)"/><path class="c" d="M859.929-67.135a19.049,19.049,0,0,1,19.049-19.049,19.049,19.049,0,0,1,19.049,19.049h-38.1Z" transform="translate(-846.484 109.767)"/><path class="d" d="M865.056-67.953a13.106,13.106,0,0,1,13.106-13.105,13.105,13.105,0,0,1,13.105,13.105H865.056Z" transform="translate(-845.667 110.584)"/><path class="e" d="M1623.488,1142.85h50.44m3.149,0h2.393m-60.91,0h6.614" transform="translate(-1618.559 -1100.843)"/><path class="f" d="M1635.84,1144.92h22.881m-19.913,2.342h6.1m2.872,0h8.186m-14.042,2.412h5.932" transform="translate(-1615.804 -1100.513)"/><path class="g" d="M1666.152,1109.81a.36.36,0,0,0-.357.368c0,.251-.108.365-.357.365a.362.362,0,1,0,0,.725c.24,0,.357.066.357.35a.362.362,0,1,0,.725,0c0-.257.12-.35.358-.35a.362.362,0,1,0,0-.725c-.323,0-.358-.185-.358-.365A.364.364,0,0,0,1666.152,1109.81Zm-39.108,25.253a.494.494,0,0,0-.49.5c0,.345-.147.5-.49.5a.5.5,0,1,0,0,.995c.329,0,.49.092.49.48a.5.5,0,1,0,.995,0c0-.353.165-.48.492-.48a.5.5,0,1,0,0-.995c-.443,0-.492-.254-.492-.5A.5.5,0,0,0,1627.044,1135.063Z" transform="translate(-1617.443 -1106.111)"/><path class="h" d="M1631.232,1121.04a.271.271,0,0,0-.269.277c0,.189-.081.275-.269.275a.273.273,0,1,0,0,.546c.181,0,.269.05.269.264a.273.273,0,1,0,.546,0c0-.194.09-.264.27-.264a.273.273,0,1,0,0-.546c-.243,0-.27-.139-.27-.275A.274.274,0,0,0,1631.232,1121.04Z" transform="translate(-1616.668 -1104.321)"/><path class="i" d="M1633.089,1106.62a.361.361,0,0,0-.357.368c0,.251-.108.365-.357.365a.362.362,0,1,0,0,.725c.24,0,.357.066.357.35a.362.362,0,1,0,.725,0c0-.257.12-.35.358-.35a.362.362,0,1,0,0-.725c-.323,0-.358-.185-.358-.365A.364.364,0,0,0,1633.089,1106.62Z" transform="translate(-1616.415 -1106.62)"/><path class="h" d="M1651.642,1107.6a.272.272,0,0,0-.269.277c0,.189-.081.275-.269.275a.273.273,0,1,0,0,.546c.181,0,.269.05.269.263a.273.273,0,1,0,.546,0c0-.194.09-.263.27-.263a.273.273,0,1,0,0-.546c-.243,0-.27-.139-.27-.275a.274.274,0,0,0-.277-.277Z" transform="translate(-1613.414 -1106.464)"/><path class="i" d="M1662.429,1115.82a.36.36,0,0,0-.357.368c0,.251-.108.365-.357.365a.362.362,0,1,0,0,.725c.24,0,.357.066.357.349a.362.362,0,1,0,.725,0c0-.257.12-.349.358-.349a.362.362,0,1,0,0-.725c-.323,0-.358-.185-.358-.365A.364.364,0,0,0,1662.429,1115.82Z" transform="translate(-1611.737 -1105.153)"/><path class="h" d="M1663.832,1126.25a.272.272,0,0,0-.269.277c0,.189-.081.275-.269.275a.273.273,0,1,0,0,.546c.181,0,.269.05.269.263a.273.273,0,1,0,.546,0c0-.194.09-.263.27-.263a.273.273,0,1,0,0-.546c-.243,0-.27-.139-.27-.275A.275.275,0,0,0,1663.832,1126.25Z" transform="translate(-1611.47 -1103.49)"/><path class="i" d="M1663.214,1132.6a.5.5,0,0,0-.49.505c0,.345-.147.5-.49.5a.5.5,0,1,0,0,.995c.329,0,.49.092.49.48a.5.5,0,1,0,.995,0c0-.353.165-.48.492-.48a.5.5,0,1,0,0-.995c-.443,0-.492-.254-.492-.5A.5.5,0,0,0,1663.214,1132.6Z" transform="translate(-1611.676 -1102.477)"/><path class="g" d="M1630.5,1113.24a.36.36,0,0,0-.357.368c0,.251-.108.365-.357.365a.362.362,0,1,0,0,.725c.24,0,.357.066.357.35a.363.363,0,1,0,.725,0c0-.257.12-.35.358-.35a.362.362,0,1,0,0-.725c-.323,0-.358-.185-.358-.365A.364.364,0,0,0,1630.5,1113.24Z" transform="translate(-1616.828 -1105.564)"/><path class="h" d="M1639.635,1108.42a.278.278,0,0,0-.275.284c0,.194-.084.282-.276.282a.28.28,0,1,0,0,.56c.186,0,.276.051.276.271a.28.28,0,1,0,.56,0c0-.2.093-.271.277-.271a.28.28,0,1,0,0-.56c-.25,0-.277-.143-.277-.282a.281.281,0,0,0-.284-.284Z" transform="translate(-1615.332 -1106.333)"/></g><g transform="translate(1711.229 1131.201) rotate(-15.004)"><path class="j" d="M6.264,0l-.3,1.544a6.268,6.268,0,0,0-1.522.609l-1.283-.87L1.3,3.154l.87,1.261a6.261,6.261,0,0,0-.631,1.544L0,6.242V8.874l1.544.283A6.264,6.264,0,0,0,2.175,10.7L1.3,11.984l1.849,1.849,1.261-.892a6.326,6.326,0,0,0,1.544.652l.3,1.522,2.61.022.3-1.544a6.3,6.3,0,0,0,1.544-.652l1.261.892,1.849-1.849-.87-1.283a6.117,6.117,0,0,0,.631-1.522l1.544-.3V6.242l-1.544-.283a6.272,6.272,0,0,0-.631-1.544l.87-1.261-1.849-1.87-1.283.87a6.26,6.26,0,0,0-1.522-.609L8.873,0H6.263ZM5.711,6.2a2.32,2.32,0,0,1,.341-.371,2.3,2.3,0,1,1-.789,1.735" transform="translate(0 0.001)"/><path class="k" d="M6.2,0,5.957,1.261a.356.356,0,0,1-.261.261A6.193,6.193,0,0,0,4.479,2l.13.087a.356.356,0,0,0,.37,0,5.9,5.9,0,0,1,1.435-.565.356.356,0,0,0,.261-.261L6.914,0ZM2.849,1.371,1.392,2.85,2.11,3.872a.355.355,0,0,1,.022.37A5.944,5.944,0,0,0,1.522,5.7a.356.356,0,0,1-.261.239L0,6.177V8.222l1.261.239a.356.356,0,0,1,.261.239,6.1,6.1,0,0,0,.609,1.479.357.357,0,0,1-.022.37l-.7,1.044,1.435,1.435.413-.3L2.132,11.593l.7-1.044a.356.356,0,0,0,.021-.37A6.1,6.1,0,0,1,2.24,8.7a.356.356,0,0,0-.261-.239L.718,8.222V6.177l1.261-.239A.356.356,0,0,0,2.24,5.7a5.948,5.948,0,0,1,.609-1.457.356.356,0,0,0-.021-.37L2.11,2.85,3.284,1.675l-.435-.3Z" transform="translate(0.352 0.349)"/><path class="l" d="M.348,0A2.494,2.494,0,0,0,0,.044,2.642,2.642,0,0,1,2.153,1.893a2.571,2.571,0,0,1,.087.326c0,.015.019.029.021.043a1.959,1.959,0,0,1,.043.391,2.183,2.183,0,0,1-.043.413c0,.015-.019.029-.021.043a2.674,2.674,0,0,1-.087.3A2.637,2.637,0,0,1,0,5.285a2.515,2.515,0,0,0,.348.022A2.653,2.653,0,0,0,.348,0Z" transform="translate(7.85 4.913)"/><path class="k" d="M.326,0a.438.438,0,0,0-.2.043L0,.134a5.916,5.916,0,0,0,1.24.5A.356.356,0,0,1,1.5.895l.261,1.261h.718L2.218.895A.356.356,0,0,0,1.957.634,5.954,5.954,0,0,1,.5.025.289.289,0,0,0,.326,0Z" transform="translate(4.81 12.615)"/><path class="l" d="M.718,0,.957,1.261a.356.356,0,0,0,.261.261A6.193,6.193,0,0,1,2.436,2l-.13.087a.357.357,0,0,1-.37,0A5.9,5.9,0,0,0,.5,1.522a.356.356,0,0,1-.261-.261L0,0H.718ZM4.065,1.371,5.522,2.85,4.8,3.872a.356.356,0,0,0-.022.37A5.947,5.947,0,0,1,5.392,5.7a.356.356,0,0,0,.261.239l1.261.239V8.222l-1.261.239a.356.356,0,0,0-.261.239,6.1,6.1,0,0,1-.609,1.479.357.357,0,0,0,.022.37l.7,1.044L4.065,13.028l-.413-.3,1.131-1.131-.7-1.044a.356.356,0,0,1-.022-.37A6.107,6.107,0,0,0,4.674,8.7a.356.356,0,0,1,.261-.239L6.2,8.222V6.177L4.935,5.938A.356.356,0,0,1,4.674,5.7a5.952,5.952,0,0,0-.609-1.457.356.356,0,0,1,.022-.37L4.8,2.85,3.63,1.675l.435-.3Z" transform="translate(7.877 0.349)"/><path class="k" d="M2.653,0A2.494,2.494,0,0,1,3,.044,2.642,2.642,0,0,0,.848,1.893a2.571,2.571,0,0,0-.087.326c0,.015-.019.029-.021.043A1.959,1.959,0,0,0,.7,2.654a2.183,2.183,0,0,0,.043.413c0,.015.019.029.021.043a2.674,2.674,0,0,0,.087.3A2.637,2.637,0,0,0,3,5.285a2.513,2.513,0,0,1-.348.022A2.653,2.653,0,0,1,2.653,0Z" transform="translate(4.689 4.913)"/><path class="l" d="M2.153,0a.438.438,0,0,1,.2.043l.13.087a5.916,5.916,0,0,1-1.24.5A.357.357,0,0,0,.979.895L.718,2.156H0L.261.895A.356.356,0,0,1,.522.634,5.955,5.955,0,0,0,1.979.025.289.289,0,0,1,2.153,0Z" transform="translate(7.854 12.615)"/><path class="m" d="M1.3,3.154l.87,1.261a6.257,6.257,0,0,0-.631,1.544L0,6.242V8.874l1.544.283A6.26,6.26,0,0,0,2.175,10.7L1.3,11.984l1.849,1.849,1.261-.892a6.324,6.324,0,0,0,1.544.652l.3,1.522,2.61.022.3-1.544a6.3,6.3,0,0,0,1.544-.652l1.261.892,1.849-1.849-.87-1.283a6.113,6.113,0,0,0,.631-1.522l.741-.146.4-.079.4-.079v-.18m0-1.276V6.242l-1.544-.283a6.275,6.275,0,0,0-.631-1.544l.87-1.261-1.849-1.87-1.283.87a6.263,6.263,0,0,0-1.522-.609L8.873,0H6.263l-.3,1.544a6.267,6.267,0,0,0-1.522.609l-1.283-.87m-.881.891-.2.2M5.711,6.2a2.306,2.306,0,0,1,.341-.371m1.516-.571A2.305,2.305,0,1,1,5.263,7.569" transform="translate(0.003 0)"/></g><g transform="translate(1731.454 1117.302) rotate(10.435)"><path class="j" d="M10.435,0,9.928,2.573A10.436,10.436,0,0,0,7.392,3.587L5.254,2.138,2.174,5.254l1.449,2.1A10.425,10.425,0,0,0,2.573,9.928L0,10.4v4.384l2.573.471a10.429,10.429,0,0,0,1.051,2.573L2.174,19.964l3.08,3.08,2.1-1.486a10.542,10.542,0,0,0,2.573,1.087l.507,2.536,4.348.036.507-2.573a10.487,10.487,0,0,0,2.572-1.087l2.1,1.486,3.08-3.08-1.449-2.138a10.188,10.188,0,0,0,1.051-2.536l2.572-.507V10.4l-2.572-.471a10.447,10.447,0,0,0-1.051-2.572l1.449-2.1-3.08-3.116L17.826,3.587A10.429,10.429,0,0,0,15.29,2.572L14.783,0H10.435Zm-.92,10.336a3.839,3.839,0,1,1-.746,2.273" transform="translate(0 0.002)"/><path class="k" d="M10.323,0l-.4,2.1a.593.593,0,0,1-.435.435,10.324,10.324,0,0,0-2.029.8l.217.145a.594.594,0,0,0,.616,0,9.828,9.828,0,0,1,2.391-.942A.592.592,0,0,0,11.12,2.1l.4-2.1ZM4.747,2.284,2.319,4.748l1.2,1.7a.592.592,0,0,1,.036.616A9.906,9.906,0,0,0,2.536,9.494a.594.594,0,0,1-.435.4l-2.1.4V13.7l2.1.4a.593.593,0,0,1,.435.4,10.159,10.159,0,0,0,1.015,2.464.6.6,0,0,1-.036.616L2.355,19.313,4.747,21.7l.688-.507L3.551,19.313l1.16-1.739a.592.592,0,0,0,.036-.616,10.174,10.174,0,0,1-1.015-2.464.593.593,0,0,0-.435-.4l-2.1-.4V10.291l2.1-.4a.593.593,0,0,0,.435-.4A9.917,9.917,0,0,1,4.746,7.067a.592.592,0,0,0-.036-.616l-1.2-1.7L5.471,2.791l-.725-.507Z" transform="translate(0.587 0.582)"/><path class="l" d="M.58,0A4.149,4.149,0,0,0,0,.074a4.4,4.4,0,0,1,3.587,3.08,4.278,4.278,0,0,1,.145.543c0,.026.032.048.036.072a3.275,3.275,0,0,1,.072.652,3.648,3.648,0,0,1-.072.688c0,.024-.032.049-.036.072a4.469,4.469,0,0,1-.145.507A4.393,4.393,0,0,1,0,8.8a4.172,4.172,0,0,0,.58.036A4.42,4.42,0,0,0,.58,0Z" transform="translate(13.078 8.186)"/><path class="k" d="M.543.006A.729.729,0,0,0,.217.078L0,.223a9.855,9.855,0,0,0,2.065.833.593.593,0,0,1,.435.435l.435,2.1h1.2L3.7,1.491a.592.592,0,0,0-.435-.435A9.922,9.922,0,0,1,.833.041.482.482,0,0,0,.543.005Z" transform="translate(8.013 21.017)"/><path class="l" d="M1.2,0l.4,2.1a.593.593,0,0,0,.435.435,10.318,10.318,0,0,1,2.029.8l-.217.145a.594.594,0,0,1-.616,0A9.829,9.829,0,0,0,.833,2.536.593.593,0,0,1,.4,2.1L0,0H1.2ZM6.772,2.284,9.2,4.748,8,6.451a.592.592,0,0,0-.036.616A9.906,9.906,0,0,1,8.983,9.494a.593.593,0,0,0,.435.4l2.1.4V13.7l-2.1.4a.592.592,0,0,0-.435.4,10.159,10.159,0,0,1-1.015,2.464A.6.6,0,0,0,8,17.574l1.16,1.739L6.772,21.7,6.084,21.2l1.884-1.884L6.809,17.574a.592.592,0,0,1-.036-.616,10.166,10.166,0,0,0,1.014-2.464.593.593,0,0,1,.435-.4l2.1-.4V10.291l-2.1-.4a.593.593,0,0,1-.435-.4A9.909,9.909,0,0,0,6.773,7.067a.592.592,0,0,1,.036-.616L8,4.748,6.048,2.791l.725-.507Z" transform="translate(13.124 0.582)"/><path class="k" d="M4.42,0A4.142,4.142,0,0,1,5,.074a4.4,4.4,0,0,0-3.587,3.08,4.278,4.278,0,0,0-.145.543c0,.026-.032.048-.036.072a3.275,3.275,0,0,0-.072.652,3.648,3.648,0,0,0,.072.688c0,.024.032.049.036.072a4.43,4.43,0,0,0,.145.507A4.393,4.393,0,0,0,5,8.8a4.172,4.172,0,0,1-.58.036A4.42,4.42,0,0,1,4.42,0Z" transform="translate(7.812 8.186)"/><path class="l" d="M3.587.006a.73.73,0,0,1,.326.072l.217.145a9.855,9.855,0,0,1-2.065.833.593.593,0,0,0-.435.435L1.2,3.592H0l.435-2.1A.592.592,0,0,1,.87,1.056,9.926,9.926,0,0,0,3.3.041a.482.482,0,0,1,.29-.036Z" transform="translate(13.086 21.017)"/><path class="e" d="M2.174,5.254l1.449,2.1A10.426,10.426,0,0,0,2.573,9.928L0,10.4v4.384l2.573.471a10.421,10.421,0,0,0,1.051,2.573L2.174,19.965l3.08,3.08,2.1-1.486a10.542,10.542,0,0,0,2.573,1.087l.507,2.536,4.348.036.507-2.573a10.487,10.487,0,0,0,2.572-1.087l2.1,1.486,3.08-3.08-1.449-2.138a10.18,10.18,0,0,0,1.051-2.536l1.234-.243.67-.132.669-.132v-.3m0-2.126V10.4l-2.573-.471a10.442,10.442,0,0,0-1.051-2.573l1.449-2.1-3.08-3.116L17.826,3.587A10.432,10.432,0,0,0,15.29,2.573L14.783,0H10.435L9.927,2.573A10.439,10.439,0,0,0,7.391,3.587L5.253,2.138M3.786,3.623l-.34.34m6.068,6.375a3.864,3.864,0,0,1,.568-.618m2.527-.951a3.841,3.841,0,1,1-3.841,3.841" transform="translate(0.006 0)"/></g></g></svg>