<svg xmlns="http://www.w3.org/2000/svg" width="96" height="96" viewBox="0 0 96 96"><defs><style>.a,.b{fill:#e3e3e3;}.a{opacity:0;}</style></defs><rect class="a" width="96" height="96"/><path class="b" d="M64.013,73.827h-56a4,4,0,0,0,0,8h56a4,4,0,0,0,0-8Zm-56-8h.36l16.68-1.52a8,8,0,0,0,4.84-2.28l36-36a7.68,7.68,0,0,0-.28-10.84L54.653,4.227a8,8,0,0,0-10.64-.28l-36,36a8,8,0,0,0-2.28,4.84l-1.72,16.68a3.99,3.99,0,0,0,4,4.36Zm41.08-56,10.92,10.92-8,7.8-10.72-10.72Zm-35.6,35.64,22.52-22.36,10.8,10.8-22.4,22.4-12,1.12Z" transform="translate(11.987 6.173)"/></svg>