<svg xmlns="http://www.w3.org/2000/svg" xmlns:xlink="http://www.w3.org/1999/xlink" width="64.626" height="53.855" viewBox="0 0 64.626 53.855"><defs><style>.a{fill:#303c42;}.b{fill:#ffccbc;}.c{fill:#01579b;}.d{opacity:0.1;}.e{fill:#fff;opacity:0.2;}.f{fill:url(#a);}</style><linearGradient id="a" x1="0.044" y1="0.316" x2="0.942" y2="0.819" gradientUnits="objectBoundingBox"><stop offset="0" stop-color="#fff" stop-opacity="0.2"/><stop offset="1" stop-color="#fff" stop-opacity="0"/></linearGradient></defs><g transform="translate(0 -2)"><path class="a" d="M49.738,31.887l-1.346-2.02V26.235a5.391,5.391,0,0,0-5.386-5.386h-11.8A1.347,1.347,0,0,1,30,18.9l4.322-8.644A5.709,5.709,0,0,0,29.222,2H28.2a1.349,1.349,0,0,0-.986.425l-14.5,15.537A17.452,17.452,0,0,0,8,29.913V42.391A13.479,13.479,0,0,0,21.464,55.855H36.085a6.718,6.718,0,0,0,5.6-3l8.051-12.082a8.013,8.013,0,0,0,0-8.891Z" transform="translate(13.542 0)"/><path class="b" d="M45.8,37.594,37.753,49.671a4.031,4.031,0,0,1-3.361,1.8H19.771A10.782,10.782,0,0,1,9,40.7V28.218a14.757,14.757,0,0,1,3.985-10.106L27.085,3h.444a3.016,3.016,0,0,1,2.693,4.357L25.9,16.006a4.04,4.04,0,0,0,3.614,5.846h11.8a2.7,2.7,0,0,1,2.693,2.693v4.039a1.346,1.346,0,0,0,.226.746L45.8,31.689a5.327,5.327,0,0,1,0,5.908Z" transform="translate(15.235 1.693)"/><path class="a" d="M13.464,9H5.386A5.391,5.391,0,0,0,0,14.386V38.62a5.391,5.391,0,0,0,5.386,5.386h8.078a5.391,5.391,0,0,0,5.386-5.386V14.386A5.391,5.391,0,0,0,13.464,9Z" transform="translate(0 11.849)"/><path class="c" d="M14.464,36.928a2.7,2.7,0,0,1-2.693,2.693H3.693A2.7,2.7,0,0,1,1,36.928V12.693A2.7,2.7,0,0,1,3.693,10h8.078a2.7,2.7,0,0,1,2.693,2.693Z" transform="translate(1.693 13.542)"/><path class="d" d="M11.771,21.385H3.693A2.489,2.489,0,0,1,1,19.182v2.2a2.7,2.7,0,0,0,2.693,2.693h8.078a2.7,2.7,0,0,0,2.693-2.693v-2.2A2.491,2.491,0,0,1,11.771,21.385Z" transform="translate(1.693 29.085)"/><path class="e" d="M11.771,10H3.693A2.7,2.7,0,0,0,1,12.693v2.2a2.491,2.491,0,0,1,2.693-2.2h8.078a2.489,2.489,0,0,1,2.693,2.2v-2.2A2.7,2.7,0,0,0,11.771,10Z" transform="translate(1.693 13.542)"/><path class="d" d="M45.8,16.781,37.753,28.858a4.031,4.031,0,0,1-3.361,1.8H19.771A10.782,10.782,0,0,1,9,19.886v1.346A10.782,10.782,0,0,0,19.771,32H34.393a4.035,4.035,0,0,0,3.361-1.8L45.8,18.127a5.313,5.313,0,0,0,.894-2.954,5.135,5.135,0,0,0-.1-.673A5.283,5.283,0,0,1,45.8,16.781Z" transform="translate(15.235 21.159)"/><path class="f" d="M63.28,31.887l-1.346-2.02V26.235a5.391,5.391,0,0,0-5.386-5.386h-11.8a1.347,1.347,0,0,1-1.2-1.95l4.322-8.644A5.709,5.709,0,0,0,42.764,2H41.738a1.349,1.349,0,0,0-.986.425l-14.5,15.537a17.452,17.452,0,0,0-4.707,11.95V42.391A13.479,13.479,0,0,0,35.006,55.855H49.627a6.718,6.718,0,0,0,5.6-3L63.28,40.776a8.013,8.013,0,0,0,0-8.891ZM13.464,20.849H5.386A5.391,5.391,0,0,0,0,26.235V50.47a5.391,5.391,0,0,0,5.386,5.386h8.078a5.391,5.391,0,0,0,5.386-5.386V26.235A5.391,5.391,0,0,0,13.464,20.849Z" transform="translate(0 0)"/></g></svg>