<svg xmlns="http://www.w3.org/2000/svg" xmlns:xlink="http://www.w3.org/1999/xlink" width="68.243" height="39.773" viewBox="0 0 68.243 39.773"><defs><style>.a{fill-rule:evenodd;fill:url(#a);}</style><linearGradient id="a" y1="0.5" x2="0.933" y2="0.5" gradientUnits="objectBoundingBox"><stop offset="0" stop-color="#000092"/><stop offset="1" stop-color="#ff00f3"/></linearGradient></defs><path class="a" d="M35.086,7.516a9.64,9.64,0,0,0-6.078,17.105,12.923,12.923,0,0,0-6.784,2.559,9.88,9.88,0,0,0-2.341-.311h-.209a6.814,6.814,0,1,0-9.89.191A10.749,10.749,0,0,0,1,37.648v6.234a1.137,1.137,0,0,0,1.137,1.137H16.95v1.093a1.137,1.137,0,0,0,1.137,1.137H24.6a1.137,1.137,0,0,0,.6,0H45.038a1.138,1.138,0,0,0,.6,0h6.518a1.137,1.137,0,0,0,1.137-1.137V45.018H68.106a1.137,1.137,0,0,0,1.137-1.137V37.648A10.749,10.749,0,0,0,60.46,27.06a6.836,6.836,0,1,0-9.89-.191h-.209a9.885,9.885,0,0,0-2.341.311,12.921,12.921,0,0,0-6.846-2.559A9.643,9.643,0,0,0,35.086,7.516Zm0,2.275a7.392,7.392,0,0,1,.173,14.782h-.346A7.393,7.393,0,0,1,35.086,9.79ZM14.649,17.668a4.6,4.6,0,1,1-4.55,4.6A4.556,4.556,0,0,1,14.649,17.668Zm40.946,0a4.6,4.6,0,1,1-4.55,4.6A4.556,4.556,0,0,1,55.595,17.668ZM30.012,26.847h2.83L31.714,40.371a1.138,1.138,0,0,0,.329.9l2.275,2.275a1.138,1.138,0,0,0,1.608,0L38.2,41.269a1.138,1.138,0,0,0,.329-.9L37.4,26.847h2.83a10.668,10.668,0,0,1,6.62,2.319l0,0a1.137,1.137,0,0,0,.129.129,11.054,11.054,0,0,1,2.7,3.257c.094.177.2.346.284.529.116.242.218.49.316.742a10.789,10.789,0,0,1,.471,1.542c.027.123.044.249.067.373a11.112,11.112,0,0,1,.2,1.968v7.264H46.478V38.39a1.138,1.138,0,1,0-2.275,0v6.584H26.04V38.39a1.138,1.138,0,1,0-2.275,0v6.584H19.225V37.71a11.118,11.118,0,0,1,.2-1.968c.023-.124.039-.25.067-.373a10.821,10.821,0,0,1,.471-1.542c.1-.251.2-.5.315-.742.085-.182.19-.352.284-.529a11.057,11.057,0,0,1,2.7-3.257,1.137,1.137,0,0,0,.133-.133A10.667,10.667,0,0,1,30.012,26.847Zm5.109.013q0,.024,0,.049l1.093,13.12-1.1,1.1-1.1-1.1,1.093-13.12q0-.024,0-.049ZM11.694,29.144h8.188a1.087,1.087,0,0,1,.209.031A13.126,13.126,0,0,0,16.95,37.71v5.034H10.1V37.07a1.137,1.137,0,1,0-2.275,0v5.674H3.275v-5.1A8.419,8.419,0,0,1,11.694,29.144Zm38.667,0h8.188a8.419,8.419,0,0,1,8.419,8.5v5.1h-4.55V37.639a1.138,1.138,0,1,0-2.275,0v5.105H53.293V37.71a13.126,13.126,0,0,0-3.141-8.535A1.142,1.142,0,0,1,50.361,29.144Z" transform="translate(-1 -7.516)"/></svg>