<svg xmlns="http://www.w3.org/2000/svg" width="61" height="64.215" viewBox="0 0 61 64.215"><defs><style>.a{fill:#dcdcdc;}</style></defs><path class="a" d="M49.585,25.341C45.475,8.421,34.72,2.449,34.271,2.193a1.637,1.637,0,0,0-1.541,0C32.184,2.514,21.4,8.614,17.351,25.4,13.466,28.583,3,37.829,3,45.342a1.605,1.605,0,0,0,1.605,1.605H15.842v4.816a1.605,1.605,0,0,0,1.605,1.605H49.553a1.605,1.605,0,0,0,1.605-1.605V46.947H62.395A1.605,1.605,0,0,0,64,45.342C64,37.8,53.437,28.519,49.585,25.341Zm-12.874,18.4H30.289a1.605,1.605,0,1,1,0-3.211h6.421a1.605,1.605,0,0,1,0,3.211ZM33.5,37.316a8.026,8.026,0,1,1,8.026-8.026A8.026,8.026,0,0,1,33.5,37.316ZM46.342,56.579a1.605,1.605,0,0,0-1.605,1.605v3.211a1.605,1.605,0,1,0,3.211,0V58.184A1.605,1.605,0,0,0,46.342,56.579Zm-25.684,0a1.605,1.605,0,0,0-1.605,1.605v3.211a1.605,1.605,0,1,0,3.211,0V58.184A1.605,1.605,0,0,0,20.658,56.579Zm11.783,9.214a1.541,1.541,0,0,0,2.119,0,24.111,24.111,0,0,0,6.1-9.214H26.341a24.111,24.111,0,0,0,6.1,9.214Z" transform="translate(-3 -2)"/></svg>