<svg xmlns="http://www.w3.org/2000/svg" width="48" height="48" viewBox="0 0 48 48"><defs><style>.a{fill:#f1664e;}.b{fill:#f2f2f2;}</style></defs><g transform="translate(-1.833 -1.833)"><g transform="translate(1.833 1.833)"><path class="a" d="M44.833,1.833h-38a5,5,0,0,0-5,5v38a5,5,0,0,0,5,5h38a5,5,0,0,0,5-5v-38A5,5,0,0,0,44.833,1.833Z" transform="translate(-1.833 -1.833)"/><g transform="translate(13.25 12)"><path class="b" d="M31.8,52.015a2.509,2.509,0,0,0,2.575,2.07H43.5a2.5,2.5,0,0,0,2.57-2.075l1.7-14.425H30.112ZM44.439,38.537a.495.495,0,0,1,.545-.45.5.5,0,0,1,.45.545L44.183,51.655a.5.5,0,0,1-.995-.1L44.44,38.538Zm-3,.024a.51.51,0,0,1,.523-.476.5.5,0,0,1,.476.524L41.81,51.63a.5.5,0,0,1-.5.477h-.025a.5.5,0,0,1-.475-.524Zm-3,.024a.5.5,0,0,1,1,0V51.607a.5.5,0,0,1-1,0V38.586Zm-2.524-.5a.5.5,0,0,1,.523.476l.625,13.022a.5.5,0,0,1-.475.523h-.025a.5.5,0,0,1-.5-.476L35.438,38.61a.5.5,0,0,1,.475-.523Zm-3.024,0a.5.5,0,0,1,.546.449l1.252,13.022a.5.5,0,0,1-1,.1L32.439,38.633a.5.5,0,0,1,.45-.545Z" transform="translate(-27.938 -30.085)"/><path class="b" d="M45.711,26.834H42.125v-.885a2.118,2.118,0,0,0-2.115-2.115H34.24a2.118,2.118,0,0,0-2.115,2.115v.885H28.036a1.914,1.914,0,0,0-1.91,1.915v1.085a.5.5,0,0,0,.5.5h20.5a.5.5,0,0,0,.5-.5V28.749A1.918,1.918,0,0,0,45.711,26.834Zm-12.586-.885a1.116,1.116,0,0,1,1.115-1.115h5.77a1.116,1.116,0,0,1,1.115,1.115v.885h-8Z" transform="translate(-26.126 -23.834)"/></g></g></g></svg>