<svg xmlns="http://www.w3.org/2000/svg" xmlns:xlink="http://www.w3.org/1999/xlink" width="79.25" height="79.25" viewBox="0 0 79.25 79.25"><defs><style>.a{fill:#303c42;}.b{fill:#f2f2f2;}.c{fill:#0288d1;}.d{fill:url(#a);}.e{fill:#fff;opacity:0.2;}.f{fill:url(#b);}</style><linearGradient id="a" x1="0.094" y1="-0.225" x2="0.893" y2="1.488" gradientUnits="objectBoundingBox"><stop offset="0" stop-color="#fff" stop-opacity="0.2"/><stop offset="1" stop-color="#fff" stop-opacity="0"/></linearGradient><linearGradient id="b" x1="0.047" y1="0.289" x2="0.953" y2="0.711" xlink:href="#a"/></defs><path class="a" d="M39.625,0A39.625,39.625,0,1,0,79.25,39.625,39.669,39.669,0,0,0,39.625,0Z"/><path class="b" d="M37.323,1A36.255,36.255,0,0,1,66.662,58.648c-.383-.248-.759-.475-1.143-.674-6.617-3.395-16.88-7.443-28.2-7.443s-21.579,4.048-28.2,7.446a13.133,13.133,0,0,0-1.139.67A36.255,36.255,0,0,1,37.323,1Z" transform="translate(2.302 2.302)"/><path class="c" d="M31,36.812A36.206,36.206,0,0,1,3.746,24.42c.188-.116.38-.241.568-.337C10.608,20.85,20.346,17,31,17S51.4,20.85,57.689,24.08c.188.1.38.221.571.337A36.21,36.21,0,0,1,31,36.812Z" transform="translate(8.624 39.135)"/><ellipse class="a" cx="20" cy="19.5" rx="20" ry="19.5" transform="translate(20 10)"/><circle class="c" cx="16.5" cy="16.5" r="16.5" transform="translate(23 13)"/><path class="d" d="M6.83,27.5c6.865-4.038,17.488-8.85,29.108-8.85A50.293,50.293,0,0,1,52.062,21.5,56.269,56.269,0,0,0,31,17c-10.656,0-20.394,3.85-26.687,7.083-.188.1-.38.221-.568.337A36.7,36.7,0,0,0,6.83,27.5Z" transform="translate(8.624 39.135)"/><path class="e" d="M9.46,22.161A16.529,16.529,0,0,1,25.97,5.651a16.278,16.278,0,0,1,7.872,2.09A16.342,16.342,0,0,0,23.51,4a16.452,16.452,0,0,0-7.872,30.931A16.408,16.408,0,0,1,9.46,22.161Z" transform="translate(16.115 9.208)"/><path class="f" d="M39.625,0A39.625,39.625,0,1,0,79.25,39.625,39.669,39.669,0,0,0,39.625,0Z"/></svg>