<?xml version="1.0" encoding="UTF-8"?><svg xmlns="http://www.w3.org/2000/svg" xmlns:xlink="http://www.w3.org/1999/xlink" version="1.1" id="Layer_1" x="0px" y="0px" viewBox="0 0 24 24" xml:space="preserve"><path fill="#303C42" d="M23.908 15.12l-4.07-13.563C19.5.422 18.265-.25 17.12.092l-5.157 1.547A2 2 0 0 0 10 0C8.897 0 8 .897 8 2H2C.897 2 0 2.897 0 4v15c0 1.103.897 2 2 2h4.422c.394.613 1.07 1 1.83 1 .214 0 .425-.031.628-.092l13.563-4.07A2.17 2.17 0 0 0 24 15.749a2.18 2.18 0 0 0-.092-.628z"/><path fill="#FFCA28" d="M1 19V4c0-.551.449-1 1-1h5.427l-3.87 1.161A2.17 2.17 0 0 0 2 6.253c0 .213.031.424.092.627L6.028 20H2c-.551 0-1-.449-1-1z"/><path fill="#FFF" d="M22.156 16.88L8.593 20.95a1.209 1.209 0 0 1-1.474-.794L3.05 6.593a1.191 1.191 0 0 1 .794-1.474l4.995-1.498C9.166 3.857 9.565 4 10 4c.18 0 .35-.031.515-.076l.569.853a.5.5 0 1 0 .832-.554l-.526-.79a2 2 0 0 0 .473-.72l5.543-1.663a1.21 1.21 0 0 1 1.475.794l4.07 13.563a1.191 1.191 0 0 1-.794 1.474z"/><linearGradient id="SVGID_1_" gradientUnits="userSpaceOnUse" x1="10.1145782" y1="2.3439178" x2="23.502903" y2="15.7322416"><stop offset="0" stop-color="#000" stop-opacity="0.1"/><stop offset="1" stop-color="#000" stop-opacity="0"/></linearGradient><path fill="url(#SVGID_1_)" d="M22.156 16.88a1.191 1.191 0 0 0 .794-1.473l-1.192-3.974-8.991-8.991-.904.271a2 2 0 0 1-.473.72l.526.79a.5.5 0 1 1-.832.554l-.569-.853A1.976 1.976 0 0 1 10 4c-.435 0-.834-.143-1.162-.379L22.11 16.894l.045-.013z"/><path fill="#303C42" d="M16.5 24c-2.45 0-4.545-1.463-5.466-3.818a.501.501 0 0 1 0-.364C11.955 17.463 14.05 16 16.5 16s4.545 1.463 5.466 3.818a.501.501 0 0 1 0 .364C21.045 22.537 18.95 24 16.5 24z"/><path fill="#FAFAFA" d="M12.04 20c.802 1.855 2.494 3 4.46 3s3.658-1.145 4.46-3c-.802-1.855-2.494-3-4.46-3s-3.658 1.145-4.46 3z"/><circle fill="#303C42" cx="16.4998779" cy="20" r="2"/><circle fill="#BBDEFB" cx="16.4998779" cy="20" r="1"/><linearGradient id="SVGID_2_" gradientUnits="userSpaceOnUse" x1="15.5935764" y1="19.5773849" x2="17.4061794" y2="20.4226151"><stop offset="0" stop-color="#FFF" stop-opacity="0.5"/><stop offset="1" stop-color="#FFF" stop-opacity="0"/></linearGradient><circle fill="url(#SVGID_2_)" cx="16.4998779" cy="20" r="1"/><circle fill="#FF6F00" cx="10" cy="2" r="1"/><path opacity="0.1" d="M10.408 1.092a.985.985 0 0 1 .092.408c0 .551-.449 1-1 1a.985.985 0 0 1-.408-.092A.999.999 0 0 0 10 3c.551 0 1-.449 1-1a.999.999 0 0 0-.592-.908z"/><linearGradient id="SVGID_3_" gradientUnits="userSpaceOnUse" x1="-0.8942915" y1="5.4745007" x2="23.6763763" y2="16.9319916"><stop offset="0" stop-color="#FFF" stop-opacity="0.2"/><stop offset="1" stop-color="#FFF" stop-opacity="0"/></linearGradient><path fill="url(#SVGID_3_)" d="M23.908 15.12l-4.07-13.563C19.5.422 18.265-.25 17.12.092l-5.157 1.547A2 2 0 0 0 10 0C8.897 0 8 .897 8 2H2C.897 2 0 2.897 0 4v15c0 1.103.897 2 2 2h4.422c.394.613 1.07 1 1.83 1 .214 0 .425-.031.628-.092l2.62-.786C12.56 22.917 14.395 24 16.5 24c2.45 0 4.545-1.463 5.466-3.818a.501.501 0 0 0 0-.364 6.355 6.355 0 0 0-.885-1.57l1.362-.41A2.17 2.17 0 0 0 24 15.749a2.18 2.18 0 0 0-.092-.628z"/><metadata><rdf:RDF xmlns:rdf="http://www.w3.org/1999/02/22-rdf-syntax-ns#" xmlns:rdfs="http://www.w3.org/2000/01/rdf-schema#" xmlns:dc="http://purl.org/dc/elements/1.1/"><rdf:Description about="https://iconscout.com/legal#licenses" dc:title="note,task,comment,message,view,eye" dc:description="note,task,comment,message,view,eye" dc:publisher="Iconscout" dc:date="2017-08-16" dc:format="image/svg+xml" dc:language="en"><dc:creator><rdf:Bag><rdf:li>Those Icons</rdf:li></rdf:Bag></dc:creator></rdf:Description></rdf:RDF></metadata></svg>